<svg xmlns="http://www.w3.org/2000/svg" width="512" height="512" viewBox="0 0 512 512" version="1.1">
	<path d="M 0 256.002 L 0 512.004 256.250 511.752 L 512.500 511.500 512.752 255.750 L 513.004 0 256.502 0 L 0 0 0 256.002 M 0.492 256.500 C 0.492 397.300, 0.608 454.751, 0.750 384.170 C 0.892 313.588, 0.892 198.388, 0.750 128.170 C 0.608 57.951, 0.492 115.700, 0.492 256.500 M 273 255 L 273 358 285.972 358 L 298.944 358 299.222 310.250 L 299.500 262.500 301.874 257.720 C 305.611 250.198, 312.317 243.462, 319.676 239.839 C 325.407 237.017, 327.236 236.613, 334.361 236.597 C 347.845 236.565, 357.185 242.328, 362.360 253.874 C 366.478 263.063, 366.984 269.766, 366.992 315.250 L 367 358 380.083 358 L 393.166 358 392.759 309.750 C 392.376 264.352, 392.227 261.044, 390.228 253.793 C 387.164 242.676, 383.266 235.354, 376.989 228.922 C 364.296 215.917, 343.945 211.526, 326.500 218.027 C 317.864 221.246, 307.439 228.463, 303.175 234.176 L 299.500 239.099 299.239 195.549 L 298.979 152 285.989 152 L 273 152 273 255 M 141.886 163.063 C 136.598 163.566, 129.848 164.326, 126.886 164.752 L 121.500 165.527 121.245 261.764 L 120.990 358 133.495 358 L 146 358 146 319.205 L 146 280.410 161.250 280.811 C 179.061 281.279, 190.836 279.634, 202.808 275.007 C 227.841 265.333, 241 246.115, 241 219.234 C 241 190.960, 225.753 172.151, 197 164.955 C 187.122 162.482, 158.378 161.496, 141.886 163.063 M 155.500 182.664 C 153.850 182.864, 151.037 183.267, 149.250 183.559 L 146 184.091 146 221.429 L 146 258.767 148.250 259.412 C 149.488 259.767, 155.225 260.322, 161 260.646 C 172.791 261.306, 185.455 259.552, 193 256.215 C 208.739 249.253, 216.960 234.930, 215.712 216.649 C 214.148 193.762, 197.049 181.654, 167 182.157 C 162.325 182.236, 157.150 182.464, 155.500 182.664" stroke="none" fill="black" fill-rule="evenodd"/>
</svg>