<svg xmlns="http://www.w3.org/2000/svg" width="114" height="87" viewBox="0 0 114 87" version="1.1">
	<path d="M 52.375 42.750 C 50.455 48.724, 49.665 50.065, 48.656 49.056 C 46.943 47.343, 45 47.845, 45 50 C 45 51.111, 45.667 52, 46.500 52 C 47.494 52, 48 52.994, 48 54.943 C 48 58.256, 51.045 61, 54.723 61 C 57.987 61, 57.535 59.357, 54.080 58.666 C 49.949 57.840, 49.470 55.104, 52.468 49.464 C 55.110 44.495, 55.730 41, 53.969 41 C 53.401 41, 52.684 41.788, 52.375 42.750 M 64.688 48.646 C 63.314 50.020, 64.026 52.142, 65.750 51.810 C 66.713 51.624, 67.500 50.841, 67.500 50.070 C 67.500 48.491, 65.736 47.598, 64.688 48.646 M 37.177 65.750 C 37.355 66.713, 39.508 68.513, 41.962 69.750 C 50.049 73.828, 69.323 72.479, 73.993 67.507 C 77.037 64.268, 75.115 63.695, 69.916 66.293 C 66.292 68.104, 63.796 68.500, 56 68.500 C 47.943 68.500, 45.922 68.158, 42.693 66.250 C 38.114 63.544, 36.746 63.420, 37.177 65.750" stroke="none" fill="black" fill-rule="evenodd"/>
</svg>